STARTFONT 2.1
COMMENT
COMMENT GENERATED BY "snftobdf 1.4"
COMMENT AUTHOR mleisher@nmsu.edu (Mark Leisher)
COMMENT DATE Tue Nov 11 13:05:03 2014
COMMENT
FONT -URW-Courier-Bold-R-Normal--40-300-100-100-M-240-ISO8859-9
SIZE 30 100 100
FONTBOUNDINGBOX 35 45 -11 -11
STARTPROPERTIES 22
FOUNDRY "URW"
FAMILY_NAME "Courier"
WEIGHT_NAME "Bold"
SLANT "R"
SETWIDTH_NAME "Normal"
ADD_STYLE_NAME ""
PIXEL_SIZE 40
POINT_SIZE 300
RESOLUTION_X 100
RESOLUTION_Y 100
SPACING "M"
AVERAGE_WIDTH 240
CHARSET_REGISTRY "ISO8859"
CHARSET_ENCODING "9"
NOTICE "IBM Courier is a Trademark of the IBM Corporation"
WEIGHT 218
RESOLUTION 138
X_HEIGHT -7
QUAD_WIDTH 24
DEFAULT_CHAR 32
FONT_ASCENT 27
FONT_DESCENT 13
ENDPROPERTIES
CHARS 191
STARTCHAR C040
ENCODING 32
SWIDTH 578 0
DWIDTH 24 0
BBX 1 1 0 0
BITMAP
00
ENDCHAR
STARTCHAR C041
ENCODING 33
SWIDTH 578 0
DWIDTH 24 0
BBX 8 23 8 0
BITMAP
7e
7e
7e
7e
7e
7e
7e
7e
3c
3c
3c
3c
3c
3c
3c
00
3c
7e
ff
ff
ff
7e
3c
ENDCHAR
STARTCHAR C042
ENCODING 34
SWIDTH 578 0
DWIDTH 24 0
BBX 11 13 6 10
BITMAP
f1e0
f1e0
f1e0
f1e0
f1e0
f1e0
f1e0
f1e0
f1e0
f1e0
f1e0
f1e0
f1e0
ENDCHAR
STARTCHAR C043
ENCODING 35
SWIDTH 578 0
DWIDTH 24 0
BBX 19 27 2 -2
BITMAP
07df00
07df00
07df00
079e00
079e00
079e00
ffffe0
ffffe0
ffffe0
ffffe0
079e00
079e00
079e00
0fbe00
0fbe00
ffffe0
ffffe0
ffffe0
ffffe0
ffffe0
0f3c00
0f3c00
0f3c00
0f3c00
0f3c00
0f3c00
0f3c00
ENDCHAR
STARTCHAR C044
ENCODING 36
SWIDTH 578 0
DWIDTH 24 0
BBX 17 30 3 -5
BITMAP
01e000
01e000
01ff00
0fff00
3fff00
3fff00
7def00
79ef00
79e700
79e700
79e780
3fe000
1fe000
07fc00
01fe00
01ff00
f1ef80
f1e780
71e780
79e780
79ef80
7fff00
7fff00
7ffe00
7bf000
01e000
01e000
01e000
01e000
01e000
ENDCHAR
STARTCHAR C045
ENCODING 37
SWIDTH 578 0
DWIDTH 24 0
BBX 18 24 3 0
BITMAP
0f8000
3fe000
7ff000
f8f800
f07800
f07800
f8f880
7ff3c0
3fefc0
0fbf00
00fc00
03f800
0fe000
3ffc00
7fff00
7bff80
67c7c0
0783c0
0783c0
0783c0
07c7c0
03ff80
01ff00
007c00
ENDCHAR
STARTCHAR C046
ENCODING 38
SWIDTH 578 0
DWIDTH 24 0
BBX 19 22 3 0
BITMAP
07c000
0ff000
1ffe00
3ffc00
3e1c00
3c0800
3e0000
1f0000
0f8000
0783c0
1fc7c0
3fe7c0
79f7c0
70ff00
f0fe00
f07e00
f83c00
fc3e00
ffffe0
7fefe0
3fc7e0
0f87e0
ENDCHAR
STARTCHAR C047
ENCODING 39
SWIDTH 578 0
DWIDTH 24 0
BBX 6 12 9 11
BITMAP
fc
fc
fc
fc
fc
fc
78
78
78
78
78
78
ENDCHAR
STARTCHAR C050
ENCODING 40
SWIDTH 578 0
DWIDTH 24 0
BBX 9 29 11 -4
BITMAP
0780
0f00
0f00
1e00
1e00
3c00
3c00
7800
7800
7800
f800
f000
f000
f000
f000
f000
f000
f000
f800
7800
7800
7800
3c00
3c00
1e00
1e00
0f00
0f00
0780
ENDCHAR
STARTCHAR C051
ENCODING 41
SWIDTH 578 0
DWIDTH 24 0
BBX 9 29 4 -4
BITMAP
f000
7800
7800
3c00
3c00
1e00
1e00
1f00
0f00
0f00
0f80
0780
0780
0780
0780
0780
0780
0780
0f80
0f00
0f00
1f00
1e00
3e00
3c00
7c00
7800
f800
f000
ENDCHAR
STARTCHAR C052
ENCODING 42
SWIDTH 578 0
DWIDTH 24 0
BBX 16 16 4 7
BITMAP
03c0
03c0
03c0
03c0
43c2
7bde
ffff
ffff
1ff8
07e0
0ff0
0ff0
1e78
3c3c
1c38
0810
ENDCHAR
STARTCHAR C053
ENCODING 43
SWIDTH 578 0
DWIDTH 24 0
BBX 20 19 2 3
BITMAP
00f000
00f000
00f000
00f000
00f000
00f000
00f000
fffff0
fffff0
fffff0
fffff0
00f000
00f000
00f000
00f000
00f000
00f000
00f000
00f000
ENDCHAR
STARTCHAR C054
ENCODING 44
SWIDTH 578 0
DWIDTH 24 0
BBX 10 10 6 -4
BITMAP
1fc0
1f80
1f80
1f00
3f00
3e00
3e00
7c00
7c00
f800
ENDCHAR
STARTCHAR C055
ENCODING 45
SWIDTH 578 0
DWIDTH 24 0
BBX 8 4 8 10
BITMAP
ff
ff
ff
ff
ENDCHAR
STARTCHAR C056
ENCODING 46
SWIDTH 578 0
DWIDTH 24 0
BBX 7 7 8 0
BITMAP
38
7c
fe
fe
fe
7c
38
ENDCHAR
STARTCHAR C057
ENCODING 47
SWIDTH 578 0
DWIDTH 24 0
BBX 20 35 2 -5
BITMAP
0000c0
0001f0
0001e0
0003e0
0003c0
0007c0
000780
000f80
000f00
001f00
001e00
001e00
003c00
003c00
007c00
007800
00f800
00f000
01f000
01e000
03e000
03c000
03c000
078000
078000
0f8000
0f0000
1f0000
1e0000
3e0000
3c0000
7c0000
780000
f80000
300000
ENDCHAR
STARTCHAR C060
ENCODING 48
SWIDTH 578 0
DWIDTH 24 0
BBX 16 24 4 0
BITMAP
07e0
0ff0
1ff8
3ffc
7c3e
781e
781e
f81f
f00f
f00f
f00f
f00f
f00f
f00f
f00f
f00f
f81f
781e
781e
7c3e
3ffc
1ff8
0ff0
07e0
ENDCHAR
STARTCHAR C061
ENCODING 49
SWIDTH 578 0
DWIDTH 24 0
BBX 18 24 3 0
BITMAP
07e000
3fe000
ffe000
ffe000
7de000
61e000
01e000
01e000
01e000
01e000
01e000
01e000
01e000
01e000
01e000
01e000
01e000
01e000
01e000
01e000
ffffc0
ffffc0
ffffc0
ffffc0
ENDCHAR
STARTCHAR C062
ENCODING 50
SWIDTH 578 0
DWIDTH 24 0
BBX 17 24 3 0
BITMAP
03f000
0ffc00
1ffe00
3fff00
7e1f80
7c0f80
780780
780780
000780
000f80
000f80
003f00
007e00
00fe00
01f800
03f000
0fe780
1fc780
3f0780
7e0780
ffff80
ffff80
ffff80
ffff80
ENDCHAR
STARTCHAR C063
ENCODING 51
SWIDTH 578 0
DWIDTH 24 0
BBX 17 24 2 0
BITMAP
07e000
1ff800
fffe00
7ffe00
7c1f00
300f00
000f00
000f00
003e00
03fc00
03f800
03f800
03fe00
001f00
000f80
000780
000780
000780
600f80
781f00
ffff00
fffe00
3ffc00
0ff000
ENDCHAR
STARTCHAR C064
ENCODING 52
SWIDTH 578 0
DWIDTH 24 0
BBX 19 24 2 0
BITMAP
007e00
007e00
00fe00
01fe00
03fe00
07fe00
07de00
0f9e00
1f1e00
3f1e00
7e1e00
7c1e00
f81e00
ffffe0
ffffe0
ffffe0
ffffe0
001e00
001e00
001e00
03ffe0
03ffe0
03ffe0
03ffe0
ENDCHAR
STARTCHAR C065
ENCODING 53
SWIDTH 578 0
DWIDTH 24 0
BBX 17 24 3 0
BITMAP
3fff00
3fff00
3fff00
3fff00
3c0000
3c0000
3c0000
3c0000
3df800
3ffc00
3ffe00
3fff00
3c1f00
100f80
000780
000780
000780
000780
600f80
f83f00
ffff00
fffe00
7ffc00
0fe000
ENDCHAR
STARTCHAR C066
ENCODING 54
SWIDTH 578 0
DWIDTH 24 0
BBX 16 24 4 0
BITMAP
007f
03ff
07ff
0fff
1fc0
3f00
7e00
7c00
7800
f9f0
fbf8
f7fc
fffe
fc3e
f81f
f00f
f00f
f00f
781f
7c3e
3ffe
1ffc
0ff8
03e0
ENDCHAR
STARTCHAR C067
ENCODING 55
SWIDTH 578 0
DWIDTH 24 0
BBX 16 24 2 0
BITMAP
ffff
ffff
ffff
ffff
f00f
f00f
f01e
f01e
001e
003c
003c
007c
0078
0078
00f0
00f0
01f0
01e0
01e0
03e0
03c0
07c0
07c0
0780
ENDCHAR
STARTCHAR C070
ENCODING 56
SWIDTH 578 0
DWIDTH 24 0
BBX 16 24 4 0
BITMAP
07e0
1ff8
3ffc
7ffe
fc3f
f01f
f00f
f00f
781f
7c3e
1ffc
0ff0
1ff8
3ffc
7c3e
f00f
f00f
f00f
f81f
fc3f
7ffe
3ffc
1ff8
07e0
ENDCHAR
STARTCHAR C071
ENCODING 57
SWIDTH 578 0
DWIDTH 24 0
BBX 16 24 3 0
BITMAP
07c0
1ff0
3ff8
7ffc
7c3e
f81e
f00e
f00f
f00f
f81f
7c3f
7fff
3fef
1fdf
0f9f
001e
003e
007e
00fc
03f8
fff0
ffe0
ffc0
fe00
ENDCHAR
STARTCHAR C072
ENCODING 58
SWIDTH 578 0
DWIDTH 24 0
BBX 7 17 8 0
BITMAP
38
7c
fe
fe
fe
7c
38
00
00
00
38
7c
fe
fe
fe
7e
3c
ENDCHAR
STARTCHAR C073
ENCODING 59
SWIDTH 578 0
DWIDTH 24 0
BBX 9 21 7 -4
BITMAP
1e00
3f00
7f80
7f80
7f80
3f00
1e00
0000
0000
0000
1f80
1f80
3f00
3f00
3e00
7e00
7c00
7c00
f800
f800
f000
ENDCHAR
STARTCHAR C074
ENCODING 60
SWIDTH 578 0
DWIDTH 24 0
BBX 22 21 0 2
BITMAP
000008
000038
0000fc
0003fc
000ff8
003fe0
00ff80
03fe00
0ff800
7fe000
ff8000
3fe000
0ff800
03fe00
00ff80
003fe0
000ff8
0003fc
0000f8
000038
000010
ENDCHAR
STARTCHAR C075
ENCODING 61
SWIDTH 578 0
DWIDTH 24 0
BBX 20 11 2 7
BITMAP
fffff0
fffff0
fffff0
fffff0
000000
000000
000000
fffff0
fffff0
fffff0
fffff0
ENDCHAR
STARTCHAR C076
ENCODING 62
SWIDTH 578 0
DWIDTH 24 0
BBX 22 21 2 2
BITMAP
400000
700000
fc0000
ff0000
7fc000
1ff000
07fc00
01ff00
007fe0
001ff8
0007fc
001ff0
007fc0
01ff00
07fc00
1ff000
7fc000
ff0000
fc0000
700000
400000
ENDCHAR
STARTCHAR C077
ENCODING 63
SWIDTH 578 0
DWIDTH 24 0
BBX 16 23 4 0
BITMAP
0fe0
7ff8
fffc
fffe
f83f
f01f
f00f
f00f
000f
003f
01fe
0ffc
0ff8
0fe0
0f00
0f00
0e00
1f00
3f80
3f80
3f80
1f00
0e00
ENDCHAR
STARTCHAR C100
ENCODING 64
SWIDTH 578 0
DWIDTH 24 0
BBX 21 23 1 0
BITMAP
01fe00
07ff80
0fffc0
1fffe0
3f03f0
7c7bf0
7cfff8
79ff78
f3ff78
f3df78
f79e78
f79e78
f7bef8
f7fff0
f7eff0
fbe7e0
79c380
7c0060
3f03e0
3ffff0
1fffe0
07ff80
01fc00
ENDCHAR
STARTCHAR C101
ENCODING 65
SWIDTH 578 0
DWIDTH 24 0
BBX 24 23 0 0
BITMAP
0ffc00
0ffe00
0ffe00
0fff00
00ff00
00ff00
01ff80
01f780
03e7c0
03e3c0
07c3e0
0781e0
0ffff0
0ffff0
1ffff0
1ffff8
3e0078
3c003c
7c001c
ff81ff
ff81ff
ff81ff
ff81ff
ENDCHAR
STARTCHAR C102
ENCODING 66
SWIDTH 578 0
DWIDTH 24 0
BBX 20 23 2 0
BITMAP
fffe00
ffff80
ffffc0
ffffc0
1e03e0
1e01e0
1e01e0
1e01e0
1e07c0
1fff80
1fff00
1fff00
1fffc0
1e03e0
1e01f0
1e00f0
1e00f0
1e00f0
1e03f0
ffffe0
ffffe0
ffffc0
ffff00
ENDCHAR
STARTCHAR C103
ENCODING 67
SWIDTH 578 0
DWIDTH 24 0
BBX 22 23 2 0
BITMAP
01f8e0
07fce0
0ffee0
1fffe0
3f07e0
7e01e0
7c01e0
7800e0
f000e0
f00080
f00000
f00000
f00000
f00000
f80000
780018
7c0038
3e00fc
3f83f8
1ffff0
0fffe0
07ff80
00fe00
ENDCHAR
STARTCHAR C104
ENCODING 68
SWIDTH 578 0
DWIDTH 24 0
BBX 21 23 1 0
BITMAP
fffe00
ffff80
ffffc0
ffffe0
1e03e0
1e01f0
1e00f0
1e0078
1e0078
1e0078
1e0078
1e0078
1e0078
1e0078
1e0078
1e00f8
1e00f0
1e01f0
1e03f0
ffffe0
ffffc0
ffff80
fffc00
ENDCHAR
STARTCHAR C105
ENCODING 69
SWIDTH 578 0
DWIDTH 24 0
BBX 20 23 2 0
BITMAP
fffff0
fffff0
fffff0
fffff0
1e00f0
1e00f0
1e3cf0
1e3cf0
1e3c00
1ffc00
1ffc00
1ffc00
1ffc00
1e3c00
1e3c00
1e3cf0
1e00f0
1e00f0
1e00f0
fffff0
fffff0
fffff0
fffff0
ENDCHAR
STARTCHAR C106
ENCODING 70
SWIDTH 578 0
DWIDTH 24 0
BBX 19 23 3 0
BITMAP
ffffe0
ffffe0
ffffe0
ffffe0
1e01e0
1e01e0
1e3de0
1e3de0
1e3c00
1ffc00
1ffc00
1ffc00
1ffc00
1e3c00
1e3c00
1e3c00
1e0000
1e0000
1e0000
ffc000
ffc000
ffc000
ffc000
ENDCHAR
STARTCHAR C107
ENCODING 71
SWIDTH 578 0
DWIDTH 24 0
BBX 22 23 2 0
BITMAP
01f1e0
07fde0
0fffe0
1fffe0
3f03e0
7e01e0
7c00f0
7800e0
f00000
f00000
f00000
f03ffc
f03ffc
f03ffc
f03ffc
7800f0
7c00f0
7e00f0
3f01f0
1ffff0
0ffff0
07ffe0
00ff00
ENDCHAR
STARTCHAR C110
ENCODING 72
SWIDTH 578 0
DWIDTH 24 0
BBX 22 23 1 0
BITMAP
ffcffc
ffcffc
ffcffc
ffcffc
1e01e0
1e01e0
1e01e0
1e01e0
1e01e0
1fffe0
1fffe0
1fffe0
1fffe0
1e01e0
1e01e0
1e01e0
1e01e0
1e01e0
1e01e0
ffcffc
ffcffc
ffcffc
ffcffc
ENDCHAR
STARTCHAR C111
ENCODING 73
SWIDTH 578 0
DWIDTH 24 0
BBX 18 23 3 0
BITMAP
ffffc0
ffffc0
ffffc0
ffffc0
01e000
01e000
01e000
01e000
01e000
01e000
01e000
01e000
01e000
01e000
01e000
01e000
01e000
01e000
01e000
ffffc0
ffffc0
ffffc0
ffffc0
ENDCHAR
STARTCHAR C112
ENCODING 74
SWIDTH 578 0
DWIDTH 24 0
BBX 21 23 2 0
BITMAP
01fff8
01fff8
01fff8
01fff8
000f00
000f00
000f00
000f00
000f00
000f00
100f00
f00f00
f00f00
f00f00
f00f00
f00f00
f00f00
f81f00
fc1f00
fffe00
fffe00
3ffc00
07f000
ENDCHAR
STARTCHAR C113
ENCODING 75
SWIDTH 578 0
DWIDTH 24 0
BBX 22 23 2 0
BITMAP
ffc7f8
ffc7f8
ffc7f8
ffc7f8
1e07e0
1e0fc0
1e1f80
1e3f00
1e7e00
1efc00
1ff800
1ffc00
1ffe00
1f3f00
1e1f00
1e0f80
1e07c0
1e07c0
1e03e0
ffc3fc
ffc1fc
ffc1fc
ffc0fc
ENDCHAR
STARTCHAR C114
ENCODING 76
SWIDTH 578 0
DWIDTH 24 0
BBX 21 23 2 0
BITMAP
fff800
fff800
fff800
fff800
0f0000
0f0000
0f0000
0f0000
0f0000
0f0000
0f0000
0f0078
0f0078
0f0078
0f0078
0f0078
0f0078
0f00f8
0f00f8
fffff8
fffff8
fffff8
fffff8
ENDCHAR
STARTCHAR C115
ENCODING 77
SWIDTH 578 0
DWIDTH 24 0
BBX 24 23 0 0
BITMAP
ff00ff
ff81ff
ff81ff
ffc3ff
1fc3f8
1fc3f8
1fe7f8
1fe7f8
1ffff8
1eff78
1eff78
1eff78
1e7e78
1e7e78
1e7e78
1e3c78
1e3c78
1e0078
1e0078
ffe7ff
ffe7ff
ffe7ff
ffe7ff
ENDCHAR
STARTCHAR C116
ENCODING 78
SWIDTH 578 0
DWIDTH 24 0
BBX 23 23 0 0
BITMAP
ff0ffe
ff0ffe
ff8ffe
ff8ffe
1fc0f0
1fc0f0
1fe0f0
1ff0f0
1ff0f0
1ef8f0
1e78f0
1e7cf0
1e3cf0
1e3ef0
1e1ff0
1e0ff0
1e0ff0
1e07f0
1e07f0
ffe3f0
ffe3f0
ffe1f0
ffe0f0
ENDCHAR
STARTCHAR C117
ENCODING 79
SWIDTH 578 0
DWIDTH 24 0
BBX 21 23 1 0
BITMAP
01fc00
07ff00
0fff80
1fffc0
3f07e0
7c01f0
7c01f0
7800f0
f00078
f00078
f00078
f00078
f00078
f00078
f00078
7800f0
7c01f0
7c01f0
3f07e0
1fffc0
0fff80
07ff00
01fc00
ENDCHAR
STARTCHAR C120
ENCODING 80
SWIDTH 578 0
DWIDTH 24 0
BBX 19 23 3 0
BITMAP
fff800
ffff00
ffff80
ffffc0
1e07c0
1e01e0
1e01e0
1e01e0
1e01e0
1e03e0
1e07e0
1fffc0
1fff80
1fff00
1ffc00
1e0000
1e0000
1e0000
1e0000
ffe000
ffe000
ffe000
ffe000
ENDCHAR
STARTCHAR C121
ENCODING 81
SWIDTH 578 0
DWIDTH 24 0
BBX 21 28 1 -5
BITMAP
01fc00
07ff00
0fff80
1fffc0
3f07e0
7e03f0
7c01f0
7800f0
f800f8
f00078
f00078
f00078
f00078
f00078
f00078
f80078
7800f0
7800f0
3c01f0
1f07e0
0fffc0
07ff80
03fe00
00fc10
01fff0
07fff8
0707f0
0201e0
ENDCHAR
STARTCHAR C122
ENCODING 82
SWIDTH 578 0
DWIDTH 24 0
BBX 22 23 1 0
BITMAP
fffe00
ffff80
ffffc0
ffffe0
1e03e0
1e01e0
1e01e0
1e01e0
1e01c0
1e0780
1fff00
1ffc00
1ff800
1ffc00
1e1e00
1e1f00
1e0f80
1e0780
1e03c0
ffe3fc
ffe1fc
ffe1fc
ffe0fc
ENDCHAR
STARTCHAR C123
ENCODING 83
SWIDTH 578 0
DWIDTH 24 0
BBX 17 23 4 0
BITMAP
07cf00
1fef00
3ff700
7fff00
fc1f00
f80f00
f00f00
f00780
f00780
780400
3f8000
1ffc00
01fe00
f00f00
f00780
700780
780780
780f80
7c1f80
7fff00
7ffe00
77fc00
f1f000
ENDCHAR
STARTCHAR C124
ENCODING 84
SWIDTH 578 0
DWIDTH 24 0
BBX 22 23 1 0
BITMAP
7ffff8
7ffff8
7ffff8
7ffff8
f87838
f0783c
f0783c
f0783c
f0783c
f0783c
f07838
f07820
007800
007800
007800
007800
007800
007800
007800
03ff00
03ff00
03ff00
03ff00
ENDCHAR
STARTCHAR C125
ENCODING 85
SWIDTH 578 0
DWIDTH 24 0
BBX 23 23 0 0
BITMAP
ffeffe
ffeffe
ffeffe
ffeffe
1e00f0
1e00f0
1e00f0
1e00f0
1e00f0
1e00f0
1e00f0
1e00f0
1e00f0
1e00f0
1e00f0
1e00f0
1e00f0
1f01f0
0f83e0
0fffe0
07ffc0
03ff80
00fe00
ENDCHAR
STARTCHAR C126
ENCODING 86
SWIDTH 578 0
DWIDTH 24 0
BBX 24 23 0 0
BITMAP
ff81ff
ff81ff
ff81ff
ff81ff
3e003c
1e007c
1e0078
0f00f8
0f00f0
0f80f0
0781e0
07c1e0
03c3e0
03c3c0
03e3c0
01e780
01f780
00ff80
00ff00
00ff00
007e00
007e00
003e00
ENDCHAR
STARTCHAR C127
ENCODING 87
SWIDTH 578 0
DWIDTH 24 0
BBX 24 23 0 0
BITMAP
ff83ff
ff83ff
ff83ff
ff83ff
38003c
38383c
387c3c
387c3c
187c78
18fe78
18fe78
1cfe78
1dff78
1def78
1def78
1fe7f0
0fc7f0
0fc7f0
0f83f0
0f83f0
0f83f0
0f01f0
0f01e0
ENDCHAR
STARTCHAR C130
ENCODING 88
SWIDTH 578 0
DWIDTH 24 0
BBX 22 23 1 0
BITMAP
7f87f8
7f87f8
7f87f8
7f87f8
1f03f0
1f87e0
0fcfc0
07ff80
03ff00
01fe00
00fc00
00fc00
01fe00
03ff00
07ff80
0fcfc0
1f87c0
1f03e0
3e01f0
ff87fc
ff87fc
ff87fc
ff87fc
ENDCHAR
STARTCHAR C131
ENCODING 89
SWIDTH 578 0
DWIDTH 24 0
BBX 24 23 0 0
BITMAP
ff81ff
ff81ff
ff81ff
ff81ff
3e007c
1f00f8
0f81f0
07c3e0
07e7e0
03e7c0
01ff80
00ff80
00ff00
007e00
003c00
003c00
003c00
003c00
003c00
07ffe0
07ffe0
07ffe0
07ffe0
ENDCHAR
STARTCHAR C132
ENCODING 90
SWIDTH 578 0
DWIDTH 24 0
BBX 18 23 3 0
BITMAP
ffff80
ffff80
ffff80
ffff80
f01f00
f03e00
f03e00
f07c00
f0f800
f1f000
01f000
03e000
07c000
0783c0
0f83c0
1f03c0
3e03c0
3c03c0
7c03c0
ffffc0
ffffc0
ffffc0
ffffc0
ENDCHAR
STARTCHAR C133
ENCODING 91
SWIDTH 578 0
DWIDTH 24 0
BBX 9 29 11 -4
BITMAP
ff80
ff80
ff80
ff80
f000
f000
f000
f000
f000
f000
f000
f000
f000
f000
f000
f000
f000
f000
f000
f000
f000
f000
f000
f000
f000
ff80
ff80
ff80
ff80
ENDCHAR
STARTCHAR C134
ENCODING 92
SWIDTH 578 0
DWIDTH 24 0
BBX 20 37 2 -6
BITMAP
300000
f80000
780000
7c0000
3c0000
3e0000
1e0000
1e0000
0f0000
0f0000
0f8000
078000
07c000
03c000
03c000
01e000
01e000
01f000
00f000
00f800
007800
007800
003c00
003c00
003e00
001e00
001f00
000f00
000f00
000780
000780
0007c0
0003c0
0003e0
0001e0
0001f0
0000c0
ENDCHAR
STARTCHAR C135
ENCODING 93
SWIDTH 578 0
DWIDTH 24 0
BBX 9 29 4 -4
BITMAP
ff80
ff80
ff80
ff80
0780
0780
0780
0780
0780
0780
0780
0780
0780
0780
0780
0780
0780
0780
0780
0780
0780
0780
0780
0780
0780
ff80
ff80
ff80
ff80
ENDCHAR
STARTCHAR C136
ENCODING 94
SWIDTH 578 0
DWIDTH 24 0
BBX 10 4 7 20
BITMAP
1e00
3f00
f380
40c0
ENDCHAR
STARTCHAR C137
ENCODING 95
SWIDTH 578 0
DWIDTH 24 0
BBX 24 4 0 -11
BITMAP
ffffff
ffffff
ffffff
ffffff
ENDCHAR
STARTCHAR C140
ENCODING 96
SWIDTH 578 0
DWIDTH 24 0
BBX 8 4 7 20
BITMAP
f8
3c
1e
07
ENDCHAR
STARTCHAR C141
ENCODING 97
SWIDTH 578 0
DWIDTH 24 0
BBX 21 18 2 0
BITMAP
03f800
0ffe00
3fff00
1fff80
1e0f80
180780
07ff80
1fff80
3fff80
7fff80
fc0780
f00780
f00f80
f83f80
fff7f8
7fe7f8
3fc7f8
0f87f8
ENDCHAR
STARTCHAR C142
ENCODING 98
SWIDTH 578 0
DWIDTH 24 0
BBX 22 24 0 0
BITMAP
fe0000
fe0000
7e0000
3e0000
1e0000
1e0000
1e1f00
1e7fc0
1effe0
1ffff0
1fc1f8
1f8078
1f007c
1e003c
1e003c
1e003c
1e003c
1f007c
1f8078
1fc1f8
fffff0
feffe0
fe7fc0
fe1f00
ENDCHAR
STARTCHAR C143
ENCODING 99
SWIDTH 578 0
DWIDTH 24 0
BBX 21 18 2 0
BITMAP
03f1e0
0ffde0
1fffe0
3fffe0
7e07e0
7c03e0
f803e0
f001e0
f00100
f00000
f00030
f80070
7c01f8
7f07f8
3fffe0
1fffc0
0fff00
01fc00
ENDCHAR
STARTCHAR C144
ENCODING 100
SWIDTH 578 0
DWIDTH 24 0
BBX 21 24 2 0
BITMAP
003fc0
003fc0
003fc0
003fc0
0033c0
0003c0
07c3c0
1ff3c0
3ffbc0
3fffc0
7e1fc0
7807c0
f807c0
f003c0
f003c0
f003c0
f003c0
f807c0
780fc0
7e1fc0
3ffff8
1ffbf8
0ff3f8
03e3f8
ENDCHAR
STARTCHAR C145
ENCODING 101
SWIDTH 578 0
DWIDTH 24 0
BBX 20 18 3 0
BITMAP
03f800
0ffe00
1fff00
3fff80
7e07c0
7803c0
f001e0
ffffe0
ffffe0
ffffe0
ffffe0
f00060
7800e0
7e07f0
3ffff0
1fffc0
0fff00
03fc00
ENDCHAR
STARTCHAR C146
ENCODING 102
SWIDTH 578 0
DWIDTH 24 0
BBX 18 24 3 0
BITMAP
01ff00
07ffc0
0fffc0
0fff80
0f0180
0f0000
ffff00
ffff00
ffff00
ffff00
0f0000
0f0000
0f0000
0f0000
0f0000
0f0000
0f0000
0f0000
0f0000
0f0000
ffff00
ffff00
ffff00
ffff00
ENDCHAR
STARTCHAR C147
ENCODING 103
SWIDTH 578 0
DWIDTH 24 0
BBX 21 24 1 -6
BITMAP
03e3f8
0ff3f8
1ffbf8
3ffff8
7e1fc0
7c07c0
f807c0
f003c0
f003c0
f003c0
f003c0
f807c0
7807c0
7e1fc0
3fffc0
3ffbc0
0ff3c0
07e3c0
0007c0
000fc0
03ff80
03ff80
03ff00
03fc00
ENDCHAR
STARTCHAR C150
ENCODING 104
SWIDTH 578 0
DWIDTH 24 0
BBX 23 24 0 0
BITMAP
ff0000
ff0000
ff0000
ff0000
0f0000
0f0000
0f0f80
0f3fc0
0f7fe0
0fffe0
0fe1f0
0f80f0
0f00f0
0f00f0
0f00f0
0f00f0
0f00f0
0f00f0
0f00f0
0f00f0
7fe7fe
7fe7fe
7fe7fe
7fe7fe
ENDCHAR
STARTCHAR C151
ENCODING 105
SWIDTH 578 0
DWIDTH 24 0
BBX 18 25 3 0
BITMAP
01e000
01e000
01e000
01e000
01e000
01e000
000000
7fe000
7fe000
7fe000
7fe000
01e000
01e000
01e000
01e000
01e000
01e000
01e000
01e000
01e000
01e000
ffffc0
ffffc0
ffffc0
ffffc0
ENDCHAR
STARTCHAR C152
ENCODING 106
SWIDTH 578 0
DWIDTH 24 0
BBX 15 31 2 -6
BITMAP
003c
003c
003c
003c
003c
003c
0000
7ffe
7ffe
7ffe
7ffe
001e
001e
001e
001e
001e
001e
001e
001e
001e
001e
001e
001e
001e
001e
003e
407e
fffc
fffc
fff8
3fe0
ENDCHAR
STARTCHAR C153
ENCODING 107
SWIDTH 578 0
DWIDTH 24 0
BBX 23 24 0 0
BITMAP
ff0000
ff0000
ff0000
ff0000
0f0000
0f0000
0f0ff8
0f0ff8
0f0ff8
0f0ff8
0f0fe0
0f3f80
0fff00
0ffc00
0ffc00
0ffe00
0f3f80
0f0fc0
0f07e0
0f03f0
7f03fe
7f03fe
7f03fe
7f03fe
ENDCHAR
STARTCHAR C154
ENCODING 108
SWIDTH 578 0
DWIDTH 24 0
BBX 18 24 3 0
BITMAP
ffe000
ffe000
ffe000
ffe000
01e000
01e000
01e000
01e000
01e000
01e000
01e000
01e000
01e000
01e000
01e000
01e000
01e000
01e000
01e000
01e000
ffffc0
ffffc0
ffffc0
ffffc0
ENDCHAR
STARTCHAR C155
ENCODING 109
SWIDTH 578 0
DWIDTH 24 0
BBX 24 18 0 0
BITMAP
fde1f0
fff3f8
fffbfc
fffffc
3e3e3c
3c3c3c
3c3c3c
3c3c3c
3c3c3c
3c3c3c
3c3c3c
3c3c3c
3c3c3c
3c3c3c
ffbfbf
ffbfbf
ffbfbf
ffbfbf
ENDCHAR
STARTCHAR C156
ENCODING 110
SWIDTH 578 0
DWIDTH 24 0
BBX 22 18 1 0
BITMAP
fe1f00
fe7f80
feffc0
ffffc0
1fc3e0
1f01e0
1e01e0
1e01e0
1e01e0
1e01e0
1e01e0
1e01e0
1e01e0
1e01e0
ffcffc
ffcffc
ffcffc
ffcffc
ENDCHAR
STARTCHAR C157
ENCODING 111
SWIDTH 578 0
DWIDTH 24 0
BBX 21 18 1 0
BITMAP
01fc00
0fff80
1fffc0
3fffe0
7f03f0
7c00f0
f800f8
f00078
f00078
f00078
f00078
f800f8
7c01f0
7f07f0
3fffe0
1fffc0
0fff80
01fc00
ENDCHAR
STARTCHAR C160
ENCODING 112
SWIDTH 578 0
DWIDTH 24 0
BBX 22 24 0 -6
BITMAP
fe1f00
fe7fc0
feffe0
fffff0
1fc1f8
1f0078
1f007c
1e003c
1e003c
1e003c
1e003c
1f007c
1f8078
1fc1f8
1ffff0
1effe0
1e7fc0
1e1f00
1e0000
1e0000
fff800
fff800
fff800
fff800
ENDCHAR
STARTCHAR C161
ENCODING 113
SWIDTH 578 0
DWIDTH 24 0
BBX 22 24 2 -6
BITMAP
03e1fc
0ff9fc
1ffdfc
3ffffc
7e0fe0
7c07e0
f803e0
f001e0
f001e0
f001e0
f001e0
f803e0
7807e0
7e0fe0
3fffe0
1ffde0
0ff9e0
03e1e0
0001e0
0001e0
007ffc
007ffc
007ffc
007ffc
ENDCHAR
STARTCHAR C162
ENCODING 114
SWIDTH 578 0
DWIDTH 24 0
BBX 22 18 2 0
BITMAP
ff83e0
ff8ff8
ff9ffc
ffbff8
07fc30
07f820
07e000
07c000
078000
078000
078000
078000
078000
078000
ffff00
ffff00
ffff00
ffff00
ENDCHAR
STARTCHAR C163
ENCODING 115
SWIDTH 578 0
DWIDTH 24 0
BBX 17 18 4 0
BITMAP
0fcf00
3fef00
7fff00
ffff00
f80f00
f00700
f80000
fff800
7ffe00
3fff00
07ff80
f00780
f00780
7c0f80
7fff00
7fff00
77fe00
fbf800
ENDCHAR
STARTCHAR C164
ENCODING 116
SWIDTH 578 0
DWIDTH 24 0
BBX 20 23 3 0
BITMAP
1e0000
1e0000
1e0000
1e0000
1e0000
ffff80
ffff80
ffff80
ffff80
1e0000
1e0000
1e0000
1e0000
1e0000
1e0000
1e0000
1e0000
1e0060
1f03e0
1ffff0
0ffff0
07ff80
01fc00
ENDCHAR
STARTCHAR C165
ENCODING 117
SWIDTH 578 0
DWIDTH 24 0
BBX 21 18 1 0
BITMAP
fe1fc0
fe1fc0
fe1fc0
fe1fc0
1e03c0
1e03c0
1e03c0
1e03c0
1e03c0
1e03c0
1e03c0
1e03c0
1f07c0
1f0fc0
0ffff8
0ffbf8
07f3f8
03e3f8
ENDCHAR
STARTCHAR C166
ENCODING 118
SWIDTH 578 0
DWIDTH 24 0
BBX 23 18 0 0
BITMAP
ff83fe
ff83fe
ff83fe
ff83fe
1e00f8
1f01f0
0f01e0
0f83e0
0783c0
07c7c0
03c780
03ef80
01ef00
01ff00
00fe00
00fe00
007c00
007c00
ENDCHAR
STARTCHAR C167
ENCODING 119
SWIDTH 578 0
DWIDTH 24 0
BBX 24 18 0 0
BITMAP
ff00ff
ff00ff
ff00ff
ff00ff
783c1e
3c3c3e
3c3e3c
3c7e3c
1e7e3c
1eff78
1eff78
1ffff8
0ff7f8
0fe7f0
0fe3f0
07c3f0
07c3e0
07c1e0
ENDCHAR
STARTCHAR C170
ENCODING 120
SWIDTH 578 0
DWIDTH 24 0
BBX 23 18 0 0
BITMAP
7f83fc
7f83fc
7f83fc
7f83fc
1f83f0
0fefe0
03ff80
01ff00
00fe00
01ff00
03ff80
07efc0
1fc7e0
3f03f8
ff83fe
ff83fe
ff83fe
ff83fe
ENDCHAR
STARTCHAR C171
ENCODING 121
SWIDTH 578 0
DWIDTH 24 0
BBX 23 24 1 -6
BITMAP
ff01fe
ff01fe
ff01fe
ff01fe
3e00f8
1e00f0
1f01f0
0f83e0
0783c0
07c7c0
03cf80
03ef00
01ff00
00fe00
00fc00
007c00
00f800
00f000
01f000
03e000
7ff800
7ff800
7ff800
7ff800
ENDCHAR
STARTCHAR C172
ENCODING 122
SWIDTH 578 0
DWIDTH 24 0
BBX 17 18 3 0
BITMAP
ffff80
ffff80
ffff80
ffff80
f03f00
f07e00
f0fc00
f1f800
03f000
07e000
0fc780
1f8780
3f0780
7c0780
ffff80
ffff80
ffff80
ffff80
ENDCHAR
STARTCHAR C173
ENCODING 123
SWIDTH 578 0
DWIDTH 24 0
BBX 11 29 8 -4
BITMAP
03e0
0fe0
1fe0
3fe0
3e00
3c00
3c00
3c00
1c00
1e00
1e00
1e00
3e00
fc00
f800
fc00
fe00
1e00
1e00
1e00
1c00
3c00
3c00
3c00
3e00
3fe0
1fe0
0fe0
03e0
ENDCHAR
STARTCHAR C174
ENCODING 124
SWIDTH 578 0
DWIDTH 24 0
BBX 4 34 10 -9
BITMAP
f0
f0
f0
f0
f0
f0
f0
f0
f0
f0
f0
f0
f0
f0
f0
f0
f0
f0
f0
f0
f0
f0
f0
f0
f0
f0
f0
f0
f0
f0
f0
f0
f0
f0
ENDCHAR
STARTCHAR C175
ENCODING 125
SWIDTH 578 0
DWIDTH 24 0
BBX 10 29 5 -4
BITMAP
f800
fc00
fe00
df00
0f00
0f00
0f00
0f00
1e00
1e00
1e00
1e00
0f00
07c0
07c0
1fc0
1fc0
1f00
1e00
1e00
0e00
0e00
0f00
0f00
1f00
ff00
fe00
fc00
f800
ENDCHAR
STARTCHAR C176
ENCODING 126
SWIDTH 578 0
DWIDTH 24 0
BBX 14 5 5 19
BITMAP
3c08
7f1c
7ff8
e3f8
40e0
ENDCHAR
STARTCHAR C240
ENCODING 160
SWIDTH 578 0
DWIDTH 24 0
BBX 1 1 0 0
BITMAP
00
ENDCHAR
STARTCHAR C241
ENCODING 161
SWIDTH 578 0
DWIDTH 24 0
BBX 8 23 8 -5
BITMAP
3c
7e
ff
ff
ff
7e
3c
00
3c
3c
3c
3c
3c
3c
3c
7e
7e
7e
7e
7e
7e
7e
7e
ENDCHAR
STARTCHAR C242
ENCODING 162
SWIDTH 578 0
DWIDTH 24 0
BBX 17 26 4 -2
BITMAP
03c000
03c000
03c000
03e000
03e000
0fff00
1fff00
3fdf00
7bcf00
73cf00
f3cf00
f3cc00
f3c000
f3c000
fbc000
7bc300
7fff00
3fff80
1ffe00
0ff800
03c000
03c000
03c000
03c000
03c000
03c000
ENDCHAR
STARTCHAR C243
ENCODING 163
SWIDTH 578 0
DWIDTH 24 0
BBX 20 24 3 0
BITMAP
00fe00
03fff0
07ffe0
0fffe0
1f87e0
1e03e0
1e03c0
1e01c0
1e0000
0f0000
ffffc0
ffffc0
ffffc0
ffffc0
078000
078000
078000
078000
0f0020
0ff0e0
1ffff0
7fffe0
3fffc0
181f80
ENDCHAR
STARTCHAR C244
ENCODING 164
SWIDTH 578 0
DWIDTH 24 0
BBX 21 20 1 2
BITMAP
100040
3000e0
7800f0
fc01f8
7cfbf0
3fffe0
0fff80
0fff80
1f8fc0
1f07c0
1e03c0
1e03c0
1e03c0
0f0780
0f8f80
1fffc0
3fffe0
fffff0
7cf9f8
3000e0
ENDCHAR
STARTCHAR C245
ENCODING 165
SWIDTH 578 0
DWIDTH 24 0
BBX 24 23 0 0
BITMAP
ff81ff
ff81ff
ff81ff
ff81ff
3f81fc
0ffff0
07ffe0
03ffc0
00ff00
0ffff0
0ffff0
0ffff0
0ffff0
003c00
0ffff0
0ffff0
0ffff0
0ffff0
003c00
07ffe0
07ffe0
07ffe0
07ffe0
ENDCHAR
STARTCHAR C246
ENCODING 166
SWIDTH 578 0
DWIDTH 24 0
BBX 4 34 10 -9
BITMAP
f0
f0
f0
f0
f0
f0
f0
f0
f0
f0
f0
f0
f0
f0
00
00
00
00
00
00
f0
f0
f0
f0
f0
f0
f0
f0
f0
f0
f0
f0
f0
f0
ENDCHAR
STARTCHAR C247
ENCODING 167
SWIDTH 578 0
DWIDTH 24 0
BBX 15 27 5 -4
BITMAP
0ffc
1ffc
3ffc
3ffc
3c3c
3c3c
1e3c
3f00
7f80
ffc0
f3e0
f1f8
f8fc
fc7c
7e3e
3f1e
1f9e
0ffe
03fc
f1f8
f0f0
f078
f078
fff8
fff8
fff0
ffe0
ENDCHAR
STARTCHAR C250
ENCODING 168
SWIDTH 578 0
DWIDTH 24 0
BBX 8 5 8 19
BITMAP
e7
e7
e7
e7
e7
ENDCHAR
STARTCHAR C251
ENCODING 169
SWIDTH 578 0
DWIDTH 24 0
BBX 23 23 0 0
BITMAP
00fe00
03ff80
0783c0
1e00f0
180030
307e18
71ff9c
63e38c
e3c18e
c78186
c78006
c78006
c78006
c78006
e3c086
63e10c
71ff0c
307c18
380030
1e0070
0f81c0
03ff80
00fe00
ENDCHAR
STARTCHAR C252
ENCODING 170
SWIDTH 578 0
DWIDTH 24 0
BBX 11 15 6 8
BITMAP
3f00
7f80
7180
0180
3f80
7f80
e180
c180
e780
7fe0
7de0
0000
0000
ffe0
ffe0
ENDCHAR
STARTCHAR C253
ENCODING 171
SWIDTH 578 0
DWIDTH 24 0
BBX 20 17 1 1
BITMAP
0070e0
00f1e0
01fbf0
03f7e0
07efc0
0fdf80
3fff00
7efc00
fdf800
7efc00
3fff00
0fdf80
07efc0
03f7e0
01fbf0
00f9f0
003060
ENDCHAR
STARTCHAR C254
ENCODING 172
SWIDTH 578 0
DWIDTH 24 0
BBX 19 12 3 6
BITMAP
ffffe0
ffffe0
ffffe0
ffffe0
0001e0
0001e0
0001e0
0001e0
0001e0
0001e0
0001e0
0001e0
ENDCHAR
STARTCHAR C255
ENCODING 173
SWIDTH 578 0
DWIDTH 24 0
BBX 8 4 8 10
BITMAP
ff
ff
ff
ff
ENDCHAR
STARTCHAR C256
ENCODING 174
SWIDTH 578 0
DWIDTH 24 0
BBX 24 23 0 0
BITMAP
007e00
03ffc0
0781e0
0e0070
180018
33ff0c
71e3ce
61e3c6
e1e3c7
c1e383
c1fe03
c1ee03
c1e783
c1e783
e1e7c7
61e3e6
73f1e6
30000c
380018
1e0070
0781e0
03ffc0
007e00
ENDCHAR
STARTCHAR C257
ENCODING 175
SWIDTH 578 0
DWIDTH 24 0
BBX 20 4 2 30
BITMAP
fffff0
fffff0
fffff0
fffff0
ENDCHAR
STARTCHAR C260
ENCODING 176
SWIDTH 578 0
DWIDTH 24 0
BBX 12 13 6 11
BITMAP
0f00
3fc0
7fe0
70e0
e070
e070
e070
e070
e070
70e0
7fe0
3fc0
0f00
ENDCHAR
STARTCHAR C261
ENCODING 177
SWIDTH 578 0
DWIDTH 24 0
BBX 20 22 2 1
BITMAP
00f000
00f000
00f000
00f000
00f000
00f000
fffff0
fffff0
fffff0
fffff0
00f000
00f000
00f000
00f000
00f000
00f000
000000
000000
fffff0
fffff0
fffff0
fffff0
ENDCHAR
STARTCHAR C262
ENCODING 178
SWIDTH 578 0
DWIDTH 24 0
BBX 10 15 6 9
BITMAP
1e00
7f80
e3c0
c0c0
c0c0
00c0
01c0
0380
0700
0e00
1c00
38c0
70c0
ffc0
ffc0
ENDCHAR
STARTCHAR C263
ENCODING 179
SWIDTH 578 0
DWIDTH 24 0
BBX 10 15 6 9
BITMAP
3e00
ff00
4380
0180
0180
0380
0f00
0f00
0180
00c0
00c0
00c0
c1c0
ff80
3e00
ENDCHAR
STARTCHAR C264
ENCODING 180
SWIDTH 578 0
DWIDTH 24 0
BBX 8 4 9 20
BITMAP
1f
3c
70
e0
ENDCHAR
STARTCHAR C265
ENCODING 181
SWIDTH 578 0
DWIDTH 24 0
BBX 21 24 1 -6
BITMAP
fe1fc0
fe1fc0
fe1fc0
fe1fc0
1e03c0
1e03c0
1e03c0
1e03c0
1e03c0
1e03c0
1e03c0
1e03c0
1f07c0
1f0fc0
1ffff8
1ffff8
1efbf8
1e73f8
1e0000
1e0000
1e0000
1e0000
1e0000
1e0000
ENDCHAR
STARTCHAR C266
ENCODING 182
SWIDTH 578 0
DWIDTH 24 0
BBX 18 26 3 -3
BITMAP
0fffc0
3fffc0
7def00
fdef00
fdef00
fdef00
fdef00
fdef00
fdef00
fdef00
7def00
3fef00
1fef00
01ef00
01ef00
01ef00
01ef00
01ef00
01ef00
01ef00
01ef00
01ef00
01ef00
01ef00
03efc0
03efc0
ENDCHAR
STARTCHAR C267
ENCODING 183
SWIDTH 578 0
DWIDTH 24 0
BBX 7 7 8 8
BITMAP
38
7c
fe
fe
fe
7c
38
ENDCHAR
STARTCHAR C270
ENCODING 184
SWIDTH 578 0
DWIDTH 24 0
BBX 8 7 10 -6
BITMAP
18
1c
1f
07
c7
ff
7e
ENDCHAR
STARTCHAR C271
ENCODING 185
SWIDTH 578 0
DWIDTH 24 0
BBX 10 15 7 9
BITMAP
1c00
7c00
ec00
8c00
0c00
0c00
0c00
0c00
0c00
0c00
0c00
0c00
0c00
ffc0
ffc0
ENDCHAR
STARTCHAR C272
ENCODING 186
SWIDTH 578 0
DWIDTH 24 0
BBX 11 15 6 8
BITMAP
1f00
3f80
71c0
e0e0
c060
c060
c060
e0e0
71c0
7fc0
1f00
0000
0000
ffe0
ffe0
ENDCHAR
STARTCHAR C273
ENCODING 187
SWIDTH 578 0
DWIDTH 24 0
BBX 20 17 2 1
BITMAP
60c000
f9f000
fdf800
7efc00
3f7e00
1fbf00
0fffc0
03f7e0
01fbf0
03f7e0
0fffc0
1fbf00
3f7e00
7efc00
fdf800
78f000
706000
ENDCHAR
STARTCHAR C274
ENCODING 188
SWIDTH 578 0
DWIDTH 24 0
BBX 23 26 0 -2
BITMAP
0e0018
7e003e
760038
460078
0600f0
0601e0
0601c0
0603c0
060780
060f00
061e70
061ef0
7ffcf0
7ff9b0
00f3b0
00e330
01e630
03ce30
078ffc
070ffc
0f0030
1e0030
3c01fc
7801fc
f00000
700000
ENDCHAR
STARTCHAR C275
ENCODING 189
SWIDTH 578 0
DWIDTH 24 0
BBX 23 26 0 -2
BITMAP
0e0018
7e003e
760038
460078
0600f0
0601e0
0601c0
0603c0
060780
060f00
061ff0
061ff8
7fff1c
7ffe0c
00f00c
00e00c
01e01c
03c038
078070
0700e0
0f01cc
1e038c
3c07fc
7807fc
f00000
700000
ENDCHAR
STARTCHAR C276
ENCODING 190
SWIDTH 578 0
DWIDTH 24 0
BBX 23 26 0 -2
BITMAP
1e0018
7f003e
238038
018078
0180f0
0101e0
0f01c0
0f83c0
01c780
00cf00
00de70
61def0
7fbcf0
1f79b0
00f3b0
00e330
01e630
03ce30
078ffc
070ffc
0f0030
1e0030
3c01fc
7801fc
f00000
700000
ENDCHAR
STARTCHAR C277
ENCODING 191
SWIDTH 578 0
DWIDTH 24 0
BBX 16 23 4 -5
BITMAP
0070
00f8
01fc
01fc
01fc
00f8
0070
00f0
00f0
07f0
1ff0
3ff0
7f80
f800
f000
f00f
f00f
f80f
fc1f
7fff
3fff
1ffe
07f0
ENDCHAR
STARTCHAR C300
ENCODING 192
SWIDTH 578 0
DWIDTH 24 0
BBX 24 28 0 0
BITMAP
01f000
007800
003c00
000e00
000000
0ffc00
0ffe00
0ffe00
0fff00
00ff00
00ff00
01ff80
01f780
03e7c0
03e3c0
07c3e0
0781e0
0ffff0
0ffff0
1ffff0
1ffff8
3e0078
3c003c
7c001c
ff81ff
ff81ff
ff81ff
ff81ff
ENDCHAR
STARTCHAR C301
ENCODING 193
SWIDTH 578 0
DWIDTH 24 0
BBX 24 28 0 0
BITMAP
000f80
001e00
003800
007000
000000
0ffc00
0ffe00
0ffe00
0fff00
00ff00
00ff00
01ff80
01f780
03e7c0
03e3c0
07c3e0
0781e0
0ffff0
0ffff0
1ffff0
1ffff8
3e0078
3c003c
7c001c
ff81ff
ff81ff
ff81ff
ff81ff
ENDCHAR
STARTCHAR C302
ENCODING 194
SWIDTH 578 0
DWIDTH 24 0
BBX 24 28 0 0
BITMAP
007800
00fc00
03ce00
010300
000000
0ffc00
0ffe00
0ffe00
0fff00
00ff00
00ff00
01ff80
01f780
03e7c0
03e3c0
07c3e0
0781e0
0ffff0
0ffff0
1ffff0
1ffff8
3e0078
3c003c
7c001c
ff81ff
ff81ff
ff81ff
ff81ff
ENDCHAR
STARTCHAR C303
ENCODING 195
SWIDTH 578 0
DWIDTH 24 0
BBX 24 29 0 0
BITMAP
01e040
03f8e0
03ffc0
071fc0
020700
000000
0ffc00
0ffe00
0ffe00
0fff00
00ff00
00ff00
01ff80
01f780
03e7c0
03e3c0
07c3e0
0781e0
0ffff0
0ffff0
1ffff0
1ffff8
3e0078
3c003c
7c001c
ff81ff
ff81ff
ff81ff
ff81ff
ENDCHAR
STARTCHAR C304
ENCODING 196
SWIDTH 578 0
DWIDTH 24 0
BBX 24 29 0 0
BITMAP
00e700
00e700
00e700
00e700
00e700
000000
0ffc00
0ffe00
0ffe00
0fff00
00ff00
00ff00
01ff80
01f780
03e7c0
03e3c0
07c3e0
0781e0
0ffff0
0ffff0
1ffff0
1ffff8
3e0078
3c003c
7c001c
ff81ff
ff81ff
ff81ff
ff81ff
ENDCHAR
STARTCHAR C305
ENCODING 197
SWIDTH 578 0
DWIDTH 24 0
BBX 24 31 0 0
BITMAP
001800
003c00
006600
006600
006600
007c00
003c00
000000
0ffc00
0ffe00
0ffe00
0fff00
00ff00
00ff00
01ff80
01f780
03e7c0
03e3c0
07c3e0
0781e0
0ffff0
0ffff0
1ffff0
1ffff8
3e0078
3c003c
7c001c
ff81ff
ff81ff
ff81ff
ff81ff
ENDCHAR
STARTCHAR C306
ENCODING 198
SWIDTH 578 0
DWIDTH 24 0
BBX 24 23 0 0
BITMAP
03ffff
03ffff
03ffff
03ffff
00ff0f
00ff0f
01ff0f
01ffff
03efff
03cff0
07cff0
07fff0
0ffff0
0fffff
1fff0f
1e0f0f
3e0f0f
3c0f0f
7c0f0f
ff0fff
ff0fff
ff0fff
ff0fff
ENDCHAR
STARTCHAR C307
ENCODING 199
SWIDTH 578 0
DWIDTH 24 0
BBX 22 29 2 -6
BITMAP
01f8e0
07fce0
0ffee0
1fffe0
3f07e0
7e01e0
7c01e0
7800e0
f000e0
f00080
f00000
f00000
f00000
f00000
f80000
780018
7c0038
3e00fc
3f83f8
1ffff0
0fffe0
07ff80
00fe00
007000
007c00
001c00
031c00
03fc00
01f800
ENDCHAR
STARTCHAR C310
ENCODING 200
SWIDTH 578 0
DWIDTH 24 0
BBX 20 28 2 0
BITMAP
07c000
01e000
00f000
003800
000000
fffff0
fffff0
fffff0
fffff0
1e00f0
1e00f0
1e3cf0
1e3cf0
1e3c00
1ffc00
1ffc00
1ffc00
1ffc00
1e3c00
1e3c00
1e3cf0
1e00f0
1e00f0
1e00f0
fffff0
fffff0
fffff0
fffff0
ENDCHAR
STARTCHAR C311
ENCODING 201
SWIDTH 578 0
DWIDTH 24 0
BBX 20 28 2 0
BITMAP
003e00
007800
00e000
01c000
000000
fffff0
fffff0
fffff0
fffff0
1e00f0
1e00f0
1e3cf0
1e3cf0
1e3c00
1ffc00
1ffc00
1ffc00
1ffc00
1e3c00
1e3c00
1e3cf0
1e00f0
1e00f0
1e00f0
fffff0
fffff0
fffff0
fffff0
ENDCHAR
STARTCHAR C312
ENCODING 202
SWIDTH 578 0
DWIDTH 24 0
BBX 20 28 2 0
BITMAP
00f000
01f800
079c00
020600
000000
fffff0
fffff0
fffff0
fffff0
1e00f0
1e00f0
1e3cf0
1e3cf0
1e3c00
1ffc00
1ffc00
1ffc00
1ffc00
1e3c00
1e3c00
1e3cf0
1e00f0
1e00f0
1e00f0
fffff0
fffff0
fffff0
fffff0
ENDCHAR
STARTCHAR C313
ENCODING 203
SWIDTH 578 0
DWIDTH 24 0
BBX 20 29 2 0
BITMAP
039c00
039c00
039c00
039c00
039c00
000000
fffff0
fffff0
fffff0
fffff0
1e00f0
1e00f0
1e3cf0
1e3cf0
1e3c00
1ffc00
1ffc00
1ffc00
1ffc00
1e3c00
1e3c00
1e3cf0
1e00f0
1e00f0
1e00f0
fffff0
fffff0
fffff0
fffff0
ENDCHAR
STARTCHAR C314
ENCODING 204
SWIDTH 578 0
DWIDTH 24 0
BBX 18 28 3 0
BITMAP
0f8000
03c000
01e000
007000
000000
ffffc0
ffffc0
ffffc0
ffffc0
01e000
01e000
01e000
01e000
01e000
01e000
01e000
01e000
01e000
01e000
01e000
01e000
01e000
01e000
01e000
ffffc0
ffffc0
ffffc0
ffffc0
ENDCHAR
STARTCHAR C315
ENCODING 205
SWIDTH 578 0
DWIDTH 24 0
BBX 18 28 3 0
BITMAP
007c00
00f000
01c000
038000
000000
ffffc0
ffffc0
ffffc0
ffffc0
01e000
01e000
01e000
01e000
01e000
01e000
01e000
01e000
01e000
01e000
01e000
01e000
01e000
01e000
01e000
ffffc0
ffffc0
ffffc0
ffffc0
ENDCHAR
STARTCHAR C316
ENCODING 206
SWIDTH 578 0
DWIDTH 24 0
BBX 18 28 3 0
BITMAP
01e000
03f000
0f3800
040c00
000000
ffffc0
ffffc0
ffffc0
ffffc0
01e000
01e000
01e000
01e000
01e000
01e000
01e000
01e000
01e000
01e000
01e000
01e000
01e000
01e000
01e000
ffffc0
ffffc0
ffffc0
ffffc0
ENDCHAR
STARTCHAR C317
ENCODING 207
SWIDTH 578 0
DWIDTH 24 0
BBX 18 29 3 0
BITMAP
073800
073800
073800
073800
073800
000000
ffffc0
ffffc0
ffffc0
ffffc0
01e000
01e000
01e000
01e000
01e000
01e000
01e000
01e000
01e000
01e000
01e000
01e000
01e000
01e000
01e000
ffffc0
ffffc0
ffffc0
ffffc0
ENDCHAR
STARTCHAR C320
ENCODING 208
SWIDTH 578 0
DWIDTH 24 0
BBX 22 30 2 0
BITMAP
1c0380
1c0380
0e0700
079e00
03fc00
01f800
000000
01f1e0
07fde0
0fffe0
1fffe0
3f03e0
7e01e0
7c00f0
7800e0
f00000
f00000
f00000
f03ffc
f03ffc
f03ffc
f03ffc
7800f0
7c00f0
7e00f0
3f01f0
1ffff0
0ffff0
07ffe0
00ff00
ENDCHAR
STARTCHAR C321
ENCODING 209
SWIDTH 578 0
DWIDTH 24 0
BBX 23 29 0 0
BITMAP
03c080
07f1c0
07ff80
0e3f80
040e00
000000
ff0ffe
ff0ffe
ff8ffe
ff8ffe
1fc0f0
1fc0f0
1fe0f0
1ff0f0
1ff0f0
1ef8f0
1e78f0
1e7cf0
1e3cf0
1e3ef0
1e1ff0
1e0ff0
1e0ff0
1e07f0
1e07f0
ffe3f0
ffe3f0
ffe1f0
ffe0f0
ENDCHAR
STARTCHAR C322
ENCODING 210
SWIDTH 578 0
DWIDTH 24 0
BBX 21 28 1 0
BITMAP
03e000
00f000
007800
001c00
000000
01fc00
07ff00
0fff80
1fffc0
3f07e0
7c01f0
7c01f0
7800f0
f00078
f00078
f00078
f00078
f00078
f00078
f00078
7800f0
7c01f0
7c01f0
3f07e0
1fffc0
0fff80
07ff00
01fc00
ENDCHAR
STARTCHAR C323
ENCODING 211
SWIDTH 578 0
DWIDTH 24 0
BBX 21 28 1 0
BITMAP
001f00
003c00
007000
00e000
000000
01fc00
07ff00
0fff80
1fffc0
3f07e0
7c01f0
7c01f0
7800f0
f00078
f00078
f00078
f00078
f00078
f00078
f00078
7800f0
7c01f0
7c01f0
3f07e0
1fffc0
0fff80
07ff00
01fc00
ENDCHAR
STARTCHAR C324
ENCODING 212
SWIDTH 578 0
DWIDTH 24 0
BBX 21 28 1 0
BITMAP
00f000
01f800
079c00
020600
000000
01fc00
07ff00
0fff80
1fffc0
3f07e0
7c01f0
7c01f0
7800f0
f00078
f00078
f00078
f00078
f00078
f00078
f00078
7800f0
7c01f0
7c01f0
3f07e0
1fffc0
0fff80
07ff00
01fc00
ENDCHAR
STARTCHAR C325
ENCODING 213
SWIDTH 578 0
DWIDTH 24 0
BBX 21 29 1 0
BITMAP
078100
0fe380
0fff00
1c7f00
081c00
000000
01fc00
07ff00
0fff80
1fffc0
3f07e0
7c01f0
7c01f0
7800f0
f00078
f00078
f00078
f00078
f00078
f00078
f00078
7800f0
7c01f0
7c01f0
3f07e0
1fffc0
0fff80
07ff00
01fc00
ENDCHAR
STARTCHAR C326
ENCODING 214
SWIDTH 578 0
DWIDTH 24 0
BBX 21 29 1 0
BITMAP
039c00
039c00
039c00
039c00
039c00
000000
01fc00
07ff00
0fff80
1fffc0
3f07e0
7c01f0
7c01f0
7800f0
f00078
f00078
f00078
f00078
f00078
f00078
f00078
7800f0
7c01f0
7c01f0
3f07e0
1fffc0
0fff80
07ff00
01fc00
ENDCHAR
STARTCHAR C327
ENCODING 215
SWIDTH 578 0
DWIDTH 24 0
BBX 16 16 4 4
BITMAP
2004
700e
f81f
7c3e
3e7c
1ff8
0ff0
07e0
07e0
0ff0
1ff8
3e7c
7c3e
f81f
700e
2004
ENDCHAR
STARTCHAR C330
ENCODING 216
SWIDTH 578 0
DWIDTH 24 0
BBX 21 23 1 0
BITMAP
01f820
07fe30
0fff60
1fffc0
3f07c0
7c07e0
780ff0
781ff0
f01f78
f03e78
f07c78
f0f878
f1f078
f1f078
f3e078
7fc0f0
7f80f0
3f01f0
1f07e0
1fffc0
37ff80
73ff00
20fc00
ENDCHAR
STARTCHAR C331
ENCODING 217
SWIDTH 578 0
DWIDTH 24 0
BBX 23 28 0 0
BITMAP
01f000
007800
003c00
000e00
000000
ffeffe
ffeffe
ffeffe
ffeffe
1e00f0
1e00f0
1e00f0
1e00f0
1e00f0
1e00f0
1e00f0
1e00f0
1e00f0
1e00f0
1e00f0
1e00f0
1e00f0
1f01f0
0f83e0
0fffe0
07ffc0
03ff80
00fe00
ENDCHAR
STARTCHAR C332
ENCODING 218
SWIDTH 578 0
DWIDTH 24 0
BBX 23 28 0 0
BITMAP
0007c0
000f00
001c00
003800
000000
ffeffe
ffeffe
ffeffe
ffeffe
1e00f0
1e00f0
1e00f0
1e00f0
1e00f0
1e00f0
1e00f0
1e00f0
1e00f0
1e00f0
1e00f0
1e00f0
1e00f0
1f01f0
0f83e0
0fffe0
07ffc0
03ff80
00fe00
ENDCHAR
STARTCHAR C333
ENCODING 219
SWIDTH 578 0
DWIDTH 24 0
BBX 23 28 0 0
BITMAP
007800
00fc00
03ce00
010300
000000
ffeffe
ffeffe
ffeffe
ffeffe
1e00f0
1e00f0
1e00f0
1e00f0
1e00f0
1e00f0
1e00f0
1e00f0
1e00f0
1e00f0
1e00f0
1e00f0
1e00f0
1f01f0
0f83e0
0fffe0
07ffc0
03ff80
00fe00
ENDCHAR
STARTCHAR C334
ENCODING 220
SWIDTH 578 0
DWIDTH 24 0
BBX 23 29 0 0
BITMAP
01ce00
01ce00
01ce00
01ce00
01ce00
000000
ffeffe
ffeffe
ffeffe
ffeffe
1e00f0
1e00f0
1e00f0
1e00f0
1e00f0
1e00f0
1e00f0
1e00f0
1e00f0
1e00f0
1e00f0
1e00f0
1e00f0
1f01f0
0f83e0
0fffe0
07ffc0
03ff80
00fe00
ENDCHAR
STARTCHAR C335
ENCODING 221
SWIDTH 578 0
DWIDTH 24 0
BBX 18 29 3 0
BITMAP
01c000
01c000
01c000
01c000
01c000
000000
ffffc0
ffffc0
ffffc0
ffffc0
01e000
01e000
01e000
01e000
01e000
01e000
01e000
01e000
01e000
01e000
01e000
01e000
01e000
01e000
01e000
ffffc0
ffffc0
ffffc0
ffffc0
ENDCHAR
STARTCHAR C336
ENCODING 222
SWIDTH 578 0
DWIDTH 24 0
BBX 17 29 4 -6
BITMAP
07cf00
1fef00
3ff700
7fff00
fc1f00
f80f00
f00f00
f00780
f00780
780400
3f8000
1ffc00
01fe00
f00f00
f00780
700780
780780
780f80
7c1f80
7fff00
7ffe00
77fc00
f1f000
01c000
01f000
007000
0c7000
0ff000
07e000
ENDCHAR
STARTCHAR C337
ENCODING 223
SWIDTH 578 0
DWIDTH 24 0
BBX 19 24 2 0
BITMAP
01f800
07fc00
0ffe00
0fff00
1f1f00
1f0f00
1e0f00
1e0f00
1e0e00
1e3c00
1e7c00
1e7f00
1e7f80
1e7fc0
1e0fc0
1e03e0
1e01e0
1e01e0
1e81e0
1ec3e0
feffc0
feffc0
fe7f80
fe3e00
ENDCHAR
STARTCHAR C340
ENCODING 224
SWIDTH 578 0
DWIDTH 24 0
BBX 21 23 2 0
BITMAP
03e000
00f000
007800
001c00
000000
03f800
0ffe00
3fff00
1fff80
1e0f80
180780
07ff80
1fff80
3fff80
7fff80
fc0780
f00780
f00f80
f83f80
fff7f8
7fe7f8
3fc7f8
0f87f8
ENDCHAR
STARTCHAR C341
ENCODING 225
SWIDTH 578 0
DWIDTH 24 0
BBX 21 23 2 0
BITMAP
001f00
003c00
007000
00e000
000000
03f800
0ffe00
3fff00
1fff80
1e0f80
180780
07ff80
1fff80
3fff80
7fff80
fc0780
f00780
f00f80
f83f80
fff7f8
7fe7f8
3fc7f8
0f87f8
ENDCHAR
STARTCHAR C342
ENCODING 226
SWIDTH 578 0
DWIDTH 24 0
BBX 21 23 2 0
BITMAP
00f000
01f800
079c00
020600
000000
03f800
0ffe00
3fff00
1fff80
1e0f80
180780
07ff80
1fff80
3fff80
7fff80
fc0780
f00780
f00f80
f83f80
fff7f8
7fe7f8
3fc7f8
0f87f8
ENDCHAR
STARTCHAR C343
ENCODING 227
SWIDTH 578 0
DWIDTH 24 0
BBX 21 24 2 0
BITMAP
078100
0fe380
0fff00
1c7f00
081c00
000000
03f800
0ffe00
3fff00
1fff80
1e0f80
180780
07ff80
1fff80
3fff80
7fff80
fc0780
f00780
f00f80
f83f80
fff7f8
7fe7f8
3fc7f8
0f87f8
ENDCHAR
STARTCHAR C344
ENCODING 228
SWIDTH 578 0
DWIDTH 24 0
BBX 21 24 2 0
BITMAP
039c00
039c00
039c00
039c00
039c00
000000
03f800
0ffe00
3fff00
1fff80
1e0f80
180780
07ff80
1fff80
3fff80
7fff80
fc0780
f00780
f00f80
f83f80
fff7f8
7fe7f8
3fc7f8
0f87f8
ENDCHAR
STARTCHAR C345
ENCODING 229
SWIDTH 578 0
DWIDTH 24 0
BBX 21 26 2 0
BITMAP
006000
00f000
019800
019800
019800
01f000
00f000
000000
03f800
0ffe00
3fff00
1fff80
1e0f80
180780
07ff80
1fff80
3fff80
7fff80
fc0780
f00780
f00f80
f83f80
fff7f8
7fe7f8
3fc7f8
0f87f8
ENDCHAR
STARTCHAR C346
ENCODING 230
SWIDTH 578 0
DWIDTH 24 0
BBX 22 18 1 0
BITMAP
0f83c0
3fc7e0
7feff0
7feff8
20fc78
00783c
00783c
1ffffc
3ffffc
7ffffc
fffffc
f87800
f07800
f0fc08
fffff8
7fcffc
7f87fc
1e03e0
ENDCHAR
STARTCHAR C347
ENCODING 231
SWIDTH 578 0
DWIDTH 24 0
BBX 21 24 2 -6
BITMAP
03f1e0
0ffde0
1fffe0
3fffe0
7e07e0
7c03e0
f803e0
f001e0
f00100
f00000
f00030
f80070
7c01f8
7f07f8
3fffe0
1fffc0
0fff00
01fc00
007000
007c00
001c00
031c00
03fc00
01f800
ENDCHAR
STARTCHAR C350
ENCODING 232
SWIDTH 578 0
DWIDTH 24 0
BBX 20 23 3 0
BITMAP
07c000
01e000
00f000
003800
000000
03f800
0ffe00
1fff00
3fff80
7e07c0
7803c0
f001e0
ffffe0
ffffe0
ffffe0
ffffe0
f00060
7800e0
7e07f0
3ffff0
1fffc0
0fff00
03fc00
ENDCHAR
STARTCHAR C351
ENCODING 233
SWIDTH 578 0
DWIDTH 24 0
BBX 20 23 3 0
BITMAP
003e00
007800
00e000
01c000
000000
03f800
0ffe00
1fff00
3fff80
7e07c0
7803c0
f001e0
ffffe0
ffffe0
ffffe0
ffffe0
f00060
7800e0
7e07f0
3ffff0
1fffc0
0fff00
03fc00
ENDCHAR
STARTCHAR C352
ENCODING 234
SWIDTH 578 0
DWIDTH 24 0
BBX 20 23 3 0
BITMAP
01e000
03f000
0f3800
040c00
000000
03f800
0ffe00
1fff00
3fff80
7e07c0
7803c0
f001e0
ffffe0
ffffe0
ffffe0
ffffe0
f00060
7800e0
7e07f0
3ffff0
1fffc0
0fff00
03fc00
ENDCHAR
STARTCHAR C353
ENCODING 235
SWIDTH 578 0
DWIDTH 24 0
BBX 20 24 3 0
BITMAP
073800
073800
073800
073800
073800
000000
03f800
0ffe00
1fff00
3fff80
7e07c0
7803c0
f001e0
ffffe0
ffffe0
ffffe0
ffffe0
f00060
7800e0
7e07f0
3ffff0
1fffc0
0fff00
03fc00
ENDCHAR
STARTCHAR C354
ENCODING 236
SWIDTH 578 0
DWIDTH 24 0
BBX 18 23 3 0
BITMAP
1f0000
078000
03c000
00e000
000000
7fe000
7fe000
7fe000
7fe000
01e000
01e000
01e000
01e000
01e000
01e000
01e000
01e000
01e000
01e000
ffffc0
ffffc0
ffffc0
ffffc0
ENDCHAR
STARTCHAR C355
ENCODING 237
SWIDTH 578 0
DWIDTH 24 0
BBX 18 23 3 0
BITMAP
007c00
00f000
01c000
038000
000000
7fe000
7fe000
7fe000
7fe000
01e000
01e000
01e000
01e000
01e000
01e000
01e000
01e000
01e000
01e000
ffffc0
ffffc0
ffffc0
ffffc0
ENDCHAR
STARTCHAR C356
ENCODING 238
SWIDTH 578 0
DWIDTH 24 0
BBX 18 23 3 0
BITMAP
01e000
03f000
0f3800
040c00
000000
7fe000
7fe000
7fe000
7fe000
01e000
01e000
01e000
01e000
01e000
01e000
01e000
01e000
01e000
01e000
ffffc0
ffffc0
ffffc0
ffffc0
ENDCHAR
STARTCHAR C357
ENCODING 239
SWIDTH 578 0
DWIDTH 24 0
BBX 18 24 3 0
BITMAP
073800
073800
073800
073800
073800
000000
7fe000
7fe000
7fe000
7fe000
01e000
01e000
01e000
01e000
01e000
01e000
01e000
01e000
01e000
01e000
ffffc0
ffffc0
ffffc0
ffffc0
ENDCHAR
STARTCHAR C360
ENCODING 240
SWIDTH 578 0
DWIDTH 24 0
BBX 21 31 1 -6
BITMAP
1c0380
1c0380
0e0700
079e00
03fc00
01f800
000000
03e3f8
0ff3f8
1ffbf8
3ffff8
7e1fc0
7c07c0
f807c0
f003c0
f003c0
f003c0
f003c0
f807c0
7807c0
7e1fc0
3fffc0
3ffbc0
0ff3c0
07e3c0
0007c0
000fc0
03ff80
03ff80
03ff00
03fc00
ENDCHAR
STARTCHAR C361
ENCODING 241
SWIDTH 578 0
DWIDTH 24 0
BBX 22 24 1 0
BITMAP
03c080
07f1c0
07ff80
0e3f80
040e00
000000
fe1f00
fe7f80
feffc0
ffffc0
1fc3e0
1f01e0
1e01e0
1e01e0
1e01e0
1e01e0
1e01e0
1e01e0
1e01e0
1e01e0
ffcffc
ffcffc
ffcffc
ffcffc
ENDCHAR
STARTCHAR C362
ENCODING 242
SWIDTH 578 0
DWIDTH 24 0
BBX 21 23 1 0
BITMAP
03e000
00f000
007800
001c00
000000
01fc00
0fff80
1fffc0
3fffe0
7f03f0
7c00f0
f800f8
f00078
f00078
f00078
f00078
f800f8
7c01f0
7f07f0
3fffe0
1fffc0
0fff80
01fc00
ENDCHAR
STARTCHAR C363
ENCODING 243
SWIDTH 578 0
DWIDTH 24 0
BBX 21 23 1 0
BITMAP
001f00
003c00
007000
00e000
000000
01fc00
0fff80
1fffc0
3fffe0
7f03f0
7c00f0
f800f8
f00078
f00078
f00078
f00078
f800f8
7c01f0
7f07f0
3fffe0
1fffc0
0fff80
01fc00
ENDCHAR
STARTCHAR C364
ENCODING 244
SWIDTH 578 0
DWIDTH 24 0
BBX 21 23 1 0
BITMAP
00f000
01f800
079c00
020600
000000
01fc00
0fff80
1fffc0
3fffe0
7f03f0
7c00f0
f800f8
f00078
f00078
f00078
f00078
f800f8
7c01f0
7f07f0
3fffe0
1fffc0
0fff80
01fc00
ENDCHAR
STARTCHAR C365
ENCODING 245
SWIDTH 578 0
DWIDTH 24 0
BBX 21 24 1 0
BITMAP
078100
0fe380
0fff00
1c7f00
081c00
000000
01fc00
0fff80
1fffc0
3fffe0
7f03f0
7c00f0
f800f8
f00078
f00078
f00078
f00078
f800f8
7c01f0
7f07f0
3fffe0
1fffc0
0fff80
01fc00
ENDCHAR
STARTCHAR C366
ENCODING 246
SWIDTH 578 0
DWIDTH 24 0
BBX 21 24 1 0
BITMAP
039c00
039c00
039c00
039c00
039c00
000000
01fc00
0fff80
1fffc0
3fffe0
7f03f0
7c00f0
f800f8
f00078
f00078
f00078
f00078
f800f8
7c01f0
7f07f0
3fffe0
1fffc0
0fff80
01fc00
ENDCHAR
STARTCHAR C367
ENCODING 247
SWIDTH 578 0
DWIDTH 24 0
BBX 19 19 2 3
BITMAP
00e000
01f000
01f000
01f000
00e000
000000
000000
000000
ffffe0
ffffe0
ffffe0
ffffe0
000000
000000
00e000
01f000
01f000
01f000
00e000
ENDCHAR
STARTCHAR C370
ENCODING 248
SWIDTH 578 0
DWIDTH 24 0
BBX 21 18 1 0
BITMAP
01f820
0fff30
1fffe0
3fffc0
7e07e0
7c0ff0
f83ff0
f07e78
f0fc78
f1f878
f3f078
7fe0f8
7fc1f0
3f03f0
1fffe0
3fffc0
63ff80
21fc00
ENDCHAR
STARTCHAR C371
ENCODING 249
SWIDTH 578 0
DWIDTH 24 0
BBX 21 23 1 0
BITMAP
07c000
01e000
00f000
003800
000000
fe1fc0
fe1fc0
fe1fc0
fe1fc0
1e03c0
1e03c0
1e03c0
1e03c0
1e03c0
1e03c0
1e03c0
1e03c0
1f07c0
1f0fc0
0ffff8
0ffbf8
07f3f8
03e3f8
ENDCHAR
STARTCHAR C372
ENCODING 250
SWIDTH 578 0
DWIDTH 24 0
BBX 21 23 1 0
BITMAP
001f00
003c00
007000
00e000
000000
fe1fc0
fe1fc0
fe1fc0
fe1fc0
1e03c0
1e03c0
1e03c0
1e03c0
1e03c0
1e03c0
1e03c0
1e03c0
1f07c0
1f0fc0
0ffff8
0ffbf8
07f3f8
03e3f8
ENDCHAR
STARTCHAR C373
ENCODING 251
SWIDTH 578 0
DWIDTH 24 0
BBX 21 23 1 0
BITMAP
00f000
01f800
079c00
020600
000000
fe1fc0
fe1fc0
fe1fc0
fe1fc0
1e03c0
1e03c0
1e03c0
1e03c0
1e03c0
1e03c0
1e03c0
1e03c0
1f07c0
1f0fc0
0ffff8
0ffbf8
07f3f8
03e3f8
ENDCHAR
STARTCHAR C374
ENCODING 252
SWIDTH 578 0
DWIDTH 24 0
BBX 21 24 1 0
BITMAP
039c00
039c00
039c00
039c00
039c00
000000
fe1fc0
fe1fc0
fe1fc0
fe1fc0
1e03c0
1e03c0
1e03c0
1e03c0
1e03c0
1e03c0
1e03c0
1e03c0
1f07c0
1f0fc0
0ffff8
0ffbf8
07f3f8
03e3f8
ENDCHAR
STARTCHAR C375
ENCODING 253
SWIDTH 578 0
DWIDTH 24 0
BBX 18 18 3 0
BITMAP
7fe000
7fe000
7fe000
7fe000
01e000
01e000
01e000
01e000
01e000
01e000
01e000
01e000
01e000
01e000
ffffc0
ffffc0
ffffc0
ffffc0
ENDCHAR
STARTCHAR C376
ENCODING 254
SWIDTH 578 0
DWIDTH 24 0
BBX 17 24 4 -6
BITMAP
0fcf00
3fef00
7fff00
ffff00
f80f00
f00700
f80000
fff800
7ffe00
3fff00
07ff80
f00780
f00780
7c0f80
7fff00
7fff00
77fe00
fbf800
01c000
01f000
007000
0c7000
0ff000
07e000
ENDCHAR
STARTCHAR C377
ENCODING 255
SWIDTH 578 0
DWIDTH 24 0
BBX 23 30 1 -6
BITMAP
01ce00
01ce00
01ce00
01ce00
01ce00
000000
ff01fe
ff01fe
ff01fe
ff01fe
3e00f8
1e00f0
1f01f0
0f83e0
0783c0
07c7c0
03cf80
03ef00
01ff00
00fe00
00fc00
007c00
00f800
00f000
01f000
03e000
7ff800
7ff800
7ff800
7ff800
ENDCHAR
ENDFONT
